<?xml version="1.0" encoding="utf-8"?>
<!-- Generator: Adobe Illustrator 26.0.3, SVG Export Plug-In . SVG Version: 6.00 Build 0)  -->
<svg version="1.1" id="Layer_1" xmlns="http://www.w3.org/2000/svg" xmlns:xlink="http://www.w3.org/1999/xlink" x="0px" y="0px"
	 width="582.5px" height="28.6px" viewBox="0 0 582.5 28.6" style="enable-background:new 0 0 582.5 28.6;" xml:space="preserve">
<style type="text/css">
	.st0{fill:#038A45;}
	.st1{fill:#F27921;}
	.st2{fill:#29377D;}
	.st3{fill-rule:evenodd;clip-rule:evenodd;fill:#2E3188;}
	.st4{fill-rule:evenodd;clip-rule:evenodd;fill:#231F20;}
	.st5{fill:#FF5F00;}
	.st6{fill:#EB001B;}
	.st7{fill:#F79E1B;}
	.st8{fill-rule:evenodd;clip-rule:evenodd;fill:#3A57A6;}
	.st9{fill-rule:evenodd;clip-rule:evenodd;fill:#F7971D;}
	.st10{fill:#231F20;}
	.st11{fill:#6E7071;}
	.st12{fill:#0B8041;}
	.st13{fill:#E77826;}
	.st14{fill-rule:evenodd;clip-rule:evenodd;fill:#016FD0;}
	.st15{fill-rule:evenodd;clip-rule:evenodd;fill:#FFFFFF;}
	.st16{fill:#27397D;}
	.st17{fill:#F9B52F;}
	.st18{fill:#F17922;}
	.st19{fill:#787A7C;}
</style>
<g id="Group_8998_00000082364906472702709690000006297267737819624627_" transform="translate(-40.769 -9626.107)">
	<g id="Group_478_00000178164029728101190380000009041898949477598364_" transform="translate(-9.129 3933.488)">
		<path id="Path_1709_00000054971890846889920480000014155091991188113297_" class="st0" d="M291.8,5698.6l4,7.3l-8.4,7.3
			L291.8,5698.6z"/>
		<path id="Path_1710_00000034090985269005237360000010438604843523144078_" class="st1" d="M289.1,5698.6l4,7.3l-8.4,7.3
			L289.1,5698.6z"/>
		<path id="Path_1711_00000030450734033540093220000004421493265380804278_" class="st2" d="M231.8,5703.1h1.9c0.5,0,1-0.1,1.5-0.3
			c0.3-0.2,0.6-0.6,0.7-1c0.1-0.5,0.1-0.8-0.1-1c-0.4-0.3-1-0.4-1.5-0.3h-1.8L231.8,5703.1z M225.3,5710.5l4-13.1h6.3
			c1.4-0.2,2.8,0.2,4,0.9c0.7,0.6,0.8,1.6,0.4,2.9c-0.2,0.7-0.6,1.4-1.1,2c-0.6,0.6-1.2,1-2,1.2c0.6,0.1,1.1,0.4,1.3,0.9
			c0.2,0.7,0.2,1.4-0.1,2l-0.5,1.8l0,0c-0.1,0.5-0.1,0.8,0.1,0.8l-0.1,0.5h-4.3v-0.8c0-0.2,0.1-0.4,0.1-0.5l0.4-1.3
			c0.2-0.5,0.2-1,0-1.5c-0.2-0.3-0.6-0.4-1.3-0.4h-1.7l-1.4,4.5L225.3,5710.5z"/>
		<path id="Path_1712_00000142170879706588057380000003843067261087485620_" class="st2" d="M251.8,5700.8l-2.9,9.7h-3.5l0.4-1.5
			c-0.6,0.5-1.2,1-1.9,1.3c-0.6,0.3-1.3,0.4-2,0.4c-0.5,0-1-0.1-1.5-0.3c-0.4-0.2-0.7-0.5-0.9-0.9s-0.3-0.8-0.2-1.3
			c0.1-0.9,0.3-1.7,0.6-2.5l1.5-5h3.9l-1.5,5c-0.2,0.5-0.3,1-0.2,1.6c0.1,0.3,0.4,0.4,0.9,0.4s0.9-0.2,1.2-0.5
			c0.4-0.4,0.7-0.9,0.8-1.5l1.5-5L251.8,5700.8z"/>
		<path id="Path_1713_00000084528342015325333420000016100291774033450407_" class="st2" d="M256.8,5703.3h1.4
			c0.6,0,1.3-0.1,1.9-0.3c0.4-0.2,0.7-0.6,0.7-1c0.2-0.5,0.1-0.9-0.1-1.1c-0.5-0.3-1.1-0.4-1.7-0.3h-1.4L256.8,5703.3z
			 M250.4,5710.5l4-13.1h5.4c0.9,0,1.9,0,2.8,0.2c0.6,0.1,1.1,0.3,1.6,0.7c0.5,0.4,0.8,0.9,0.9,1.5c0.1,0.7,0,1.5-0.2,2.2
			c-0.4,1.4-1.2,2.6-2.3,3.4c-1.2,0.8-2.7,1.2-4.1,1.2h-2.6l-1.2,4L250.4,5710.5z"/>
		<path id="Path_1714_00000133520014558429070440000015332396431214319744_" class="st2" d="M270.3,5706.2c-0.5,0.2-1.1,0.3-1.6,0.5
			c-1,0.3-1.6,0.6-1.8,1c-0.1,0.2-0.1,0.5,0.1,0.6c0.2,0.2,0.5,0.3,0.7,0.2c0.6,0,1.1-0.1,1.6-0.5c0.4-0.4,0.7-0.9,0.9-1.5
			C270.2,5706.4,270.3,5706.3,270.3,5706.2L270.3,5706.2z M269.4,5710.5v-0.9c-0.6,0.4-1.2,0.7-1.9,1c-0.7,0.2-1.3,0.3-2,0.3
			c-0.9,0.1-1.7-0.2-2.3-0.8c-0.5-0.7-0.5-1.5-0.2-2.3c0.2-0.9,0.7-1.6,1.5-2.1c1.1-0.6,2.4-0.9,3.7-1l0.9-0.1c1.3-0.1,2-0.4,2.1-1
			c0.1-0.2,0.1-0.5-0.1-0.6c-0.3-0.2-0.7-0.2-1-0.2s-0.7,0.1-1,0.2c-0.3,0.2-0.5,0.4-0.6,0.7h-3.8c0.3-1.1,1.1-2,2.1-2.5
			c1.3-0.6,2.7-0.9,4.1-0.8c0.7,0,1.4,0.1,2.2,0.2c0.5,0.1,1,0.3,1.5,0.6c0.3,0.2,0.6,0.6,0.7,1c0,0.6,0,1.1-0.2,1.7l-1.7,5.4
			c0,0.2,0,0.3,0,0.5c0,0.1,0.1,0.3,0.2,0.3l-0.1,0.3L269.4,5710.5z"/>
		<path id="Path_1715_00000106853035749597047240000008377379699427462830_" class="st2" d="M273.3,5714.4l0.9-2.9h1.1
			c0.3,0,0.6,0,0.9-0.2c0.2-0.1,0.4-0.4,0.4-0.6c0-0.1,0.1-0.3,0.1-0.4v-0.5l-0.6-8.9h3.9v5.9l3.4-5.9h3.7l-6.1,9.7
			c-0.7,1.1-1.2,1.8-1.5,2.2c-0.3,0.3-0.6,0.6-0.9,0.9c-0.4,0.3-0.8,0.5-1.2,0.6c-0.7,0.2-1.4,0.2-2.1,0.2L273.3,5714.4"/>
	</g>
	<g id="Group_480_00000131360014485155975360000015862462435168370613_" transform="translate(39.451 3933.527)">
		<path id="Path_1716_00000096049170956970760000000005868356249122672270_" class="st3" d="M324.9,5695.8c-5,0-9,4.5-9,10.1
			s4,10.1,9,10.1l0,0h6.1c5,0,9-4.5,9-10.1s-4.1-10.1-9.1-10.1C330.9,5695.8,325,5695.8,324.9,5695.8z M325.8,5696.2
			c5.4-0.1,9.8,4.2,9.9,9.6s-4.2,9.8-9.6,9.9s-9.8-4.2-9.9-9.6c0-0.1,0-0.1,0-0.2c-0.1-5.3,4.2-9.7,9.5-9.7
			C325.7,5696.2,325.8,5696.2,325.8,5696.2z M327.5,5712.6v-13.3c3.7,1,5.8,4.8,4.8,8.5C331.6,5710.1,329.8,5711.9,327.5,5712.6z
			 M324.1,5699.2v13.4c-3.7-1-5.9-4.9-4.8-8.6C320,5701.7,321.8,5699.9,324.1,5699.2z"/>
		<g id="Group_479_00000055679607178068851880000004360803085473434031_">
			<path id="Path_1717_00000150067146943207396840000012717657152784095114_" class="st4" d="M344.9,5704.5c0.4,0,0.6-0.2,0.7-0.5
				c0-0.2,0.1-0.4,0.2-0.6l1-3.6c0.1-0.3,0.1-0.6,0.2-0.8v-0.2c0-0.2-0.2-0.4-0.5-0.4h-0.3l0.1-0.2h2.1c0.6,0,1.2,0,1.8,0.2
				c0.5,0.2,1,0.5,1.2,1c0.3,0.5,0.4,1,0.4,1.6c0,0.9-0.4,1.8-1,2.5c-0.7,0.7-1.5,1.1-2.4,1.2c-0.5,0.1-1,0.1-1.5,0.1h-2.2
				L344.9,5704.5L344.9,5704.5z M346.9,5703.2l-0.1,0.6c0,0.1-0.1,0.2,0,0.2c0,0.1,0.1,0.3,0.2,0.3c0,0,0,0,0.1,0s0.3,0.1,0.4,0
				c1.4,0.1,2.6-0.7,3.1-2c0.2-0.5,0.3-1.1,0.3-1.6c0-0.6-0.2-1.1-0.5-1.5c-0.4-0.4-0.9-0.6-1.5-0.6c-0.2,0-0.4,0-0.6,0.1h-0.1
				c0,0,0,0,0,0.1l-0.2,0.7L346.9,5703.2L346.9,5703.2z"/>
			<path id="Path_1718_00000167375857503358008890000004941130530554066860_" class="st4" d="M354.3,5703.8l-0.1,0.1
				c-0.1,0.1-0.2,0.3-0.4,0.5c-0.2,0.3-0.5,0.5-0.9,0.5s-0.6-0.2-0.5-0.6c0-0.3,0.1-0.6,0.1-0.9l0.6-2.2c0-0.1,0.1-0.2,0-0.3
				c0-0.1,0-0.2-0.2-0.3h-0.4l0.1-0.2l1.6-0.3l-1,3.4l-0.1,0.4c0,0.1,0,0.2,0,0.2c0,0.1,0,0.1,0.1,0.1s0.3-0.1,0.4-0.2
				s0.2-0.2,0.3-0.4l0.1-0.1L354.3,5703.8L354.3,5703.8z M353.7,5698.6c0-0.4,0.2-0.6,0.5-0.6s0.5,0.2,0.5,0.6
				c0,0.1-0.1,0.3-0.1,0.4c-0.1,0.1-0.2,0.1-0.4,0.1C353.8,5699.1,353.7,5698.9,353.7,5698.6L353.7,5698.6z"/>
			<path id="Path_1719_00000152978281111776570470000004754370629403567759_" class="st4" d="M355.3,5703.4l0.3-1.2l0.3-1.2
				c0-0.1,0-0.2,0-0.3c0-0.2-0.1-0.3-0.2-0.3h-0.4v-0.2l1.6-0.3l-0.6,1.9l0.1-0.2l0.3-0.4c0.6-0.9,1.2-1.3,1.8-1.3
				c0.3,0,0.6,0.2,0.6,0.5c0,0,0,0,0,0.1v0.2v0.3l-0.1,0.3l-0.6,2.1l-0.1,0.5v0.1c0,0.1,0,0.1,0.1,0.1s0.4-0.1,0.6-0.5l0.2-0.2
				l0.1,0.1l-0.2,0.3c-0.1,0.1-0.2,0.2-0.3,0.3c-0.1,0.1-0.2,0.2-0.3,0.3c-0.1,0-0.2,0.1-0.3,0.1c-0.1,0.1-0.2,0.1-0.3,0.1
				c-0.3,0-0.5-0.2-0.5-0.5v-0.3c0-0.2,0.1-0.4,0.2-0.6l0.5-1.8v-0.3c0-0.1,0.1-0.2,0-0.3v-0.1c0-0.1-0.1-0.1-0.2-0.1
				c-0.3,0.1-0.5,0.2-0.7,0.5l-0.2,0.3c-0.2,0.3-0.5,0.6-0.6,1c-0.1,0.2-0.2,0.5-0.3,0.6l-0.2,0.6l-0.4,1.2h-0.8L355.3,5703.4
				L355.3,5703.4z"/>
			<path id="Path_1720_00000108278193381074906680000017765485721710731912_" class="st4" d="M360.9,5703.1c0,0.1-0.1,0.3,0,0.4
				c0,0.2,0.1,0.4,0.2,0.6c0.2,0.2,0.4,0.2,0.6,0.2s0.4,0,0.6-0.1s0.3-0.2,0.5-0.3l0.2-0.2l0.1-0.1l0.1,0.1l-0.2,0.2
				c-0.1,0.1-0.3,0.2-0.4,0.3c-0.4,0.3-0.9,0.5-1.3,0.5c-0.2,0-0.4,0-0.6-0.1c-0.5-0.2-0.8-0.7-0.8-1.3c0-0.8,0.4-1.6,0.9-2.2
				c0.5-0.7,1.3-1.1,2.1-1.1c0.6,0,0.9,0.2,0.9,0.7c0,0.6-0.4,1.2-1,1.4c-0.5,0.3-1.1,0.5-1.7,0.6H361L360.9,5703.1L360.9,5703.1z
				 M361.4,5702.5c0.7-0.2,1.3-0.7,1.6-1.4c0-0.1,0.1-0.2,0-0.3c0-0.2-0.1-0.4-0.3-0.4c-0.3,0-0.7,0.3-1.1,0.9
				c-0.2,0.2-0.3,0.5-0.4,0.7c0,0.1-0.1,0.3-0.2,0.6L361.4,5702.5L361.4,5702.5z"/>
			<path id="Path_1721_00000078762351586108326020000015801457608981634985_" class="st4" d="M364.6,5703.6l0.5-1.6l0.2-0.9
				c0-0.1,0.1-0.2,0-0.3v-0.1c-0.1-0.1-0.2-0.1-0.3-0.1h-0.4l0.1-0.2l1.6-0.3l-0.5,1.8l0.2-0.4l0.4-0.6c0.4-0.6,0.7-0.8,1.1-0.8
				c0.3,0,0.5,0.2,0.5,0.4v0.1c0,0.2,0,0.3-0.1,0.4s-0.2,0.1-0.3,0.1c-0.1,0-0.3,0-0.4-0.1l-0.1-0.2H367h-0.1l-0.2,0.2
				c-0.2,0.3-0.4,0.6-0.6,1c-0.1,0.2-0.2,0.4-0.3,0.7c-0.1,0.3-0.2,0.6-0.3,0.9l-0.3,1h-0.7L364.6,5703.6L364.6,5703.6z"/>
			<path id="Path_1722_00000169551010353562056370000006098789256918701725_" class="st4" d="M368.2,5703.3v0.2c0,0.1,0,0.3,0.1,0.4
				c0.1,0.5,0.4,0.7,0.9,0.7c0.2,0,0.4-0.1,0.5-0.2c0.1-0.2,0.2-0.4,0.2-0.6c0-0.1,0-0.2,0-0.3c-0.1-0.2-0.2-0.3-0.3-0.5l-0.5-0.7
				c-0.1-0.2-0.2-0.3-0.3-0.5c-0.1-0.2-0.1-0.4-0.1-0.6c0-0.1,0-0.3,0.1-0.4s0.1-0.2,0.2-0.3c0.1-0.1,0.2-0.2,0.4-0.3
				c0.2-0.1,0.3-0.1,0.5-0.1s0.3,0,0.5,0s0.3,0.1,0.5,0.1c0.1,0,0.2,0,0.2-0.1l0,0h0.1l-0.2,1.4h-0.2v-0.2c-0.1-0.6-0.4-0.9-0.9-0.9
				c-0.3,0-0.5,0.2-0.5,0.6c0,0.3,0.1,0.6,0.3,0.9l0.5,0.6c0.1,0.1,0.2,0.3,0.3,0.5c0.1,0.2,0.1,0.4,0.1,0.6c0,0.4-0.2,0.8-0.5,1
				s-0.7,0.4-1.1,0.4c-0.2,0-0.3,0-0.5,0c-0.2-0.1-0.3-0.1-0.5-0.1h-0.1l0,0l-0.1,0.1h-0.2l0.2-1.6L368.2,5703.3L368.2,5703.3z"/>
			<path id="Path_1723_00000145053869353834919220000016380144189841492870_" class="st4" d="M380.4,5703.4l-0.2,0.3
				c-0.6,0.8-1.5,1.2-2.4,1.2c-0.7,0-1.4-0.3-1.9-0.8c-0.2-0.2-0.4-0.5-0.5-0.8c-0.2-0.4-0.2-0.7-0.2-1.1s0.1-0.9,0.2-1.3
				c0.3-0.8,0.8-1.5,1.5-2s1.5-0.8,2.3-0.9c0.5,0,0.9,0.1,1.3,0.2c0.1,0,0.2,0,0.3,0c0.1,0,0.2-0.1,0.2-0.1v-0.1h0.2l-0.4,2h-0.2
				v-0.2c0-0.2,0-0.3-0.1-0.5c0-0.2-0.1-0.3-0.3-0.5c-0.3-0.3-0.7-0.5-1.2-0.5c-0.7,0-1.3,0.3-1.7,0.8c-0.4,0.5-0.8,1.1-0.9,1.7
				c-0.1,0.4-0.2,0.9-0.2,1.3c-0.1,0.5,0.1,1,0.4,1.3c0.3,0.4,0.8,0.6,1.2,0.6c0.8,0,1.6-0.4,2.1-1l0.1-0.1L380.4,5703.4
				L380.4,5703.4z"/>
			<path id="Path_1724_00000075126690843436673060000002180389050494541221_" class="st4" d="M382.5,5699.1c0-0.1,0.1-0.2,0.1-0.4
				v-0.1c0-0.1-0.1-0.1-0.3-0.1H382v-0.2l1.6-0.3l-1.5,5.6c-0.1,0.2-0.1,0.3-0.1,0.5l0,0c0,0.1,0,0.1,0.1,0.1s0.3-0.1,0.4-0.2
				l0.2-0.2l0.2-0.2l0.1-0.1l0.2,0.1l-0.1,0.2c-0.1,0.1-0.2,0.3-0.4,0.4c-0.2,0.3-0.6,0.6-1,0.6c-0.1,0-0.3-0.1-0.4-0.1
				c-0.1-0.1-0.1-0.2-0.1-0.4c0-0.1,0-0.2,0-0.3l0.2-0.7L382.5,5699.1L382.5,5699.1z"/>
			<path id="Path_1725_00000096020238846332107740000001976557055113751428_" class="st4" d="M386.2,5703.3c-0.2,0.4-0.5,0.7-0.8,1
				c-0.3,0.4-0.7,0.6-1.1,0.6c-0.1,0-0.3-0.1-0.4-0.2s-0.1-0.3-0.1-0.5s0-0.3,0-0.5l0.1-0.5l0.6-2.2c0-0.1,0.1-0.2,0-0.3
				c0-0.2,0-0.3-0.2-0.3H384l0.1-0.2l1.6-0.3l-1,3.6c0,0.2-0.1,0.3-0.1,0.5c0,0.1,0,0.2,0.2,0.2c0.2-0.1,0.5-0.2,0.6-0.4l0.4-0.5
				l0.3-0.5c0.2-0.2,0.3-0.4,0.4-0.7c0.2-0.3,0.3-0.6,0.5-0.9c0.1-0.3,0.2-0.5,0.3-0.8l0.1-0.4h0.8l-0.1,0.6l-0.3,1.2
				c-0.1,0.5-0.3,0.9-0.4,1.3l-0.1,0.6c0,0.1,0,0.3,0,0.4s0,0.1,0.1,0.1s0.2-0.1,0.4-0.3l0.3-0.3l0.1-0.1l0.2,0.1l-0.1,0.1l-0.3,0.5
				c-0.1,0.1-0.2,0.2-0.3,0.3c-0.2,0.1-0.3,0.2-0.6,0.2c-0.4,0-0.6-0.2-0.6-0.5c0-0.1,0-0.3,0-0.4l0.1-0.4l0.2-0.9L386.2,5703.3
				L386.2,5703.3z"/>
			<path id="Path_1726_00000075154060636177027770000014466588639636390285_" class="st4" d="M390.2,5701.3c0.1-0.2,0.3-0.4,0.4-0.6
				c0.3-0.4,0.8-0.6,1.3-0.6c0.2,0,0.3,0,0.5,0.1c0.5,0.2,0.6,0.6,0.7,1.2c0,0.9-0.4,1.7-1.1,2.3c-0.4,0.4-0.8,0.7-1.2,0.9
				c-0.3,0.1-0.6,0.2-0.9,0.2c-0.4,0-0.9-0.1-1.2-0.4v-0.1l0,0l0,0v-0.1l0.1-0.3l1.3-4.8c0-0.1,0.1-0.3,0.1-0.4v-0.1
				c0-0.1-0.2-0.1-0.4-0.1h-0.3v-0.2l1.6-0.3L390.2,5701.3L390.2,5701.3z M389.5,5704.2c0,0.3,0.1,0.4,0.5,0.4
				c0.5,0,0.9-0.2,1.2-0.6c0.3-0.4,0.6-0.9,0.8-1.3c0.1-0.4,0.2-0.8,0.2-1.2c0-0.5-0.2-0.7-0.6-0.8c-0.4,0.1-0.8,0.3-1,0.6
				c-0.3,0.3-0.5,0.7-0.6,1.1l-0.2,0.6C389.6,5703.4,389.5,5703.8,389.5,5704.2L389.5,5704.2z"/>
			<path id="Path_1727_00000021818236586708238000000006549751507327188890_" class="st4" d="M344.7,5713.2h0.1
				c0.2,0,0.3-0.1,0.4-0.2s0.1-0.2,0.1-0.3l0.2-0.6l1.2-4.1v-0.2c0-0.1,0.1-0.1,0-0.2c0-0.2-0.2-0.3-0.5-0.4H346v-0.2h2.5v0.2h-0.2
				c-0.2,0-0.5,0.2-0.6,0.4c0,0.2-0.1,0.4-0.2,0.6l-1.2,4.1c0,0.2-0.1,0.3-0.1,0.5s0.1,0.4,0.5,0.4h0.2v0.2h-2.5L344.7,5713.2
				L344.7,5713.2z"/>
			<path id="Path_1728_00000101090482731507611330000010498208226341045390_" class="st4" d="M348.3,5712.1l0.3-1.2l0.3-1.2
				c0-0.1,0-0.2,0-0.3c0-0.1-0.1-0.2-0.3-0.2h-0.2h-0.1l0.1-0.2l1.6-0.3l-0.6,2l0.1-0.2l0.3-0.4c0.7-0.9,1.2-1.3,1.8-1.3
				c0.3,0,0.6,0.3,0.6,0.6v0.2v0.3l-0.1,0.4l-0.6,2.1l-0.1,0.5v0.1c0,0.1,0.1,0.1,0.1,0.1c0.1,0,0.3-0.1,0.6-0.5l0.2-0.3l0.2,0.1
				l-0.2,0.3c-0.1,0.1-0.2,0.3-0.3,0.4c-0.1,0.1-0.2,0.2-0.3,0.3l-0.3,0.1c-0.1,0-0.2,0.1-0.3,0.1c-0.2,0-0.5-0.2-0.5-0.4
				c0,0,0,0,0-0.1s0-0.3,0-0.4c0-0.2,0.1-0.4,0.1-0.6l0.5-1.8v-0.3c0-0.1,0.1-0.2,0-0.3v-0.1c0-0.1-0.1-0.1-0.2-0.1
				c-0.2,0-0.4,0.1-0.7,0.5l-0.3,0.3c-0.2,0.3-0.5,0.6-0.6,1c-0.1,0.2-0.2,0.4-0.3,0.6l-0.2,0.6l-0.4,1.2h-0.8L348.3,5712.1
				L348.3,5712.1z"/>
			<path id="Path_1729_00000119090539087082475320000001124064132623205539_" class="st4" d="M353.2,5709.3v-0.2
				c0.3-0.1,0.6-0.2,0.9-0.5c0.2-0.1,0.3-0.2,0.5-0.4l0.3-0.4h0.2l-0.3,1.1h0.8l-0.1,0.4h-0.8l-0.9,3.1v0.2v0.2c0,0.1,0,0.1,0,0.1
				l0,0l0,0c0.1,0,0.3-0.1,0.5-0.4c0.1-0.1,0.1-0.2,0.2-0.3v-0.1l0.2,0.1l-0.1,0.2l-0.3,0.4c-0.1,0.1-0.2,0.3-0.3,0.4
				c-0.2,0.2-0.5,0.3-0.7,0.3c-0.3,0-0.5-0.2-0.5-0.5c0-0.1,0-0.2,0-0.3l0.2-0.6l0.8-2.9L353.2,5709.3z"/>
			<path id="Path_1730_00000036940332990405336580000006692165073360288133_" class="st4" d="M356.7,5711.8
				c-0.1,0.1-0.1,0.3-0.1,0.4s0,0.2,0,0.3c0,0.1,0.1,0.2,0.2,0.3c0.2,0.2,0.4,0.3,0.6,0.3s0.3,0,0.5-0.1s0.3-0.2,0.5-0.3l0.3-0.2
				h0.1l0.2,0.1l-0.2,0.2c-0.1,0.1-0.3,0.2-0.4,0.3c-0.4,0.3-0.9,0.5-1.4,0.6c-0.7,0-1.3-0.6-1.3-1.3v-0.1c0-0.8,0.3-1.6,0.9-2.2
				c0.5-0.7,1.3-1.1,2.1-1.2c0.6,0,0.9,0.3,0.9,0.8c-0.1,0.6-0.5,1.2-1,1.4c-0.5,0.3-1.1,0.4-1.7,0.6h-0.1L356.7,5711.8
				L356.7,5711.8z M357.1,5711.1c0.7-0.1,1.3-0.6,1.6-1.3c0-0.1,0.1-0.2,0.1-0.3c0-0.3-0.1-0.4-0.3-0.4c-0.3,0-0.7,0.3-1.1,0.9
				c-0.1,0.2-0.3,0.5-0.4,0.7s-0.1,0.4-0.2,0.6L357.1,5711.1z"/>
			<path id="Path_1731_00000092430135336403001090000003107904317061350557_" class="st4" d="M360.3,5712.3l0.5-1.6l0.2-0.9v-0.4
				c0-0.1-0.1-0.1-0.3-0.1h-0.2h-0.1v-0.2l1.6-0.3l-0.5,1.8l0.3-0.4l0.4-0.6c0.4-0.6,0.7-0.9,1.1-0.9s0.5,0.2,0.5,0.6
				c0,0.2,0,0.3-0.1,0.4s-0.2,0.2-0.4,0.2c-0.1,0-0.3-0.1-0.3-0.2l-0.1-0.1h-0.1l0,0l-0.2,0.2c-0.3,0.3-0.5,0.6-0.6,1
				c-0.1,0.2-0.2,0.5-0.3,0.7c-0.1,0.3-0.2,0.6-0.3,0.9l-0.3,1.1H360L360.3,5712.3L360.3,5712.3z"/>
			<path id="Path_1732_00000065767276608075473550000003173243513368765370_" class="st4" d="M363.9,5712.1l0.3-1.2l0.3-1.2
				c0-0.1,0-0.2,0-0.3c0-0.1-0.1-0.2-0.2-0.2l0,0h-0.2H364v-0.2l1.6-0.3l-0.6,2l0.2-0.2l0.3-0.4c0.6-0.9,1.2-1.3,1.7-1.3
				c0.3,0,0.6,0.3,0.6,0.6v0.1v0.1v0.3v0.4l-0.6,2.1l-0.1,0.5v0.1c0,0.1,0,0.1,0.1,0.1s0.3-0.1,0.6-0.5l0.2-0.3l0.2,0.1l-0.2,0.3
				c-0.1,0.1-0.2,0.3-0.3,0.4c-0.1,0.1-0.2,0.2-0.3,0.3l-0.3,0.1c-0.1,0.1-0.2,0.1-0.3,0.1c-0.3,0-0.4-0.2-0.5-0.5
				c0-0.1,0-0.3,0-0.4c0-0.2,0.1-0.4,0.1-0.6l0.5-1.8l0.1-0.3c0-0.1,0-0.2,0-0.3v-0.1c0-0.1-0.1-0.1-0.2-0.1c-0.2,0-0.4,0.1-0.7,0.5
				l-0.3,0.3c-0.2,0.3-0.5,0.6-0.6,1c-0.1,0.2-0.2,0.4-0.3,0.6l-0.2,0.6l-0.4,1.2h-0.7L363.9,5712.1L363.9,5712.1z"/>
			<path id="Path_1733_00000144310497089131090500000002504244561815146894_" class="st4" d="M371.2,5712.3
				c-0.2,0.3-0.5,0.6-0.8,0.8c-0.3,0.3-0.6,0.4-1,0.4c-0.3,0-0.6-0.2-0.7-0.4c-0.2-0.2-0.3-0.5-0.3-0.8c0-0.4,0.1-0.8,0.2-1.1
				c0.3-0.7,0.7-1.3,1.3-1.8c0.2-0.2,0.5-0.4,0.7-0.5s0.4-0.2,0.7-0.2c0.2,0,0.5,0.1,0.6,0.3l0.1,0.2l0.1-0.3h0.7l-0.1,0.4l-0.3,1
				l-0.4,1.4l-0.2,0.7c0,0.1-0.1,0.3-0.1,0.5c0,0,0,0,0,0.1l0,0l0,0c0.1,0,0.3-0.2,0.6-0.5l0.1-0.2l0.1,0.2l-0.1,0.2l-0.3,0.3
				c-0.4,0.4-0.6,0.6-0.9,0.6s-0.5-0.2-0.5-0.5c0-0.1,0-0.2,0-0.3l0.1-0.6L371.2,5712.3L371.2,5712.3z M369.3,5712.3
				c0,0.5,0.2,0.7,0.6,0.7s0.9-0.4,1.3-1.1c0.1-0.3,0.3-0.5,0.4-0.8s0.2-0.5,0.2-0.8c0.1-0.2,0.1-0.5,0.1-0.7s0-0.3-0.1-0.4
				s-0.3-0.2-0.4-0.2c-0.3,0-0.6,0.2-0.8,0.4c-0.2,0.2-0.4,0.4-0.6,0.7c-0.1,0.3-0.3,0.5-0.4,0.8
				C369.4,5711.4,369.3,5711.8,369.3,5712.3z"/>
			<path id="Path_1734_00000069371987469305326220000016241273966439572101_" class="st4" d="M373.6,5709.3v-0.2
				c0.3-0.1,0.6-0.2,0.9-0.5c0.1-0.1,0.3-0.2,0.5-0.4l0.3-0.4h0.2l-0.3,1.1h0.8l-0.1,0.4h-0.8l-0.9,3.1v0.2v0.2c0,0.1,0,0.1,0,0.1
				l0,0l0,0c0.1,0,0.3-0.1,0.5-0.4c0.1-0.1,0.1-0.2,0.2-0.3v-0.1l0.2,0.1l-0.1,0.2l-0.3,0.4c-0.1,0.1-0.2,0.3-0.3,0.4
				c-0.2,0.2-0.5,0.3-0.7,0.3c-0.3,0-0.5-0.2-0.5-0.5c0-0.1,0-0.2,0-0.3l0.2-0.6l0.8-2.9L373.6,5709.3z"/>
			<path id="Path_1735_00000047030512977699655210000008865797650025991073_" class="st4" d="M378,5712.5L378,5712.5
				c-0.2,0.3-0.3,0.5-0.5,0.6c-0.2,0.3-0.5,0.5-0.9,0.5s-0.5-0.2-0.5-0.7c0-0.3,0.1-0.6,0.2-0.9l0.6-2.2c0-0.1,0-0.2,0-0.3
				c0-0.1-0.1-0.3-0.2-0.3c0,0,0,0-0.1,0h-0.2h-0.1l0.1-0.2l1.6-0.3l-1,3.5l-0.1,0.4c0,0.1,0,0.2,0,0.3c0,0.1,0,0.1,0.1,0.1l0,0
				c0.1,0,0.3-0.1,0.4-0.2s0.2-0.3,0.3-0.4v-0.1L378,5712.5L378,5712.5z M377.4,5707.2c0-0.4,0.2-0.6,0.5-0.6s0.5,0.2,0.5,0.6
				c0,0.1,0,0.3-0.1,0.4s-0.3,0.2-0.4,0.2C377.6,5707.8,377.4,5707.6,377.4,5707.2z"/>
			<path id="Path_1736_00000171690126191013222510000015161824057374515854_" class="st4" d="M378.7,5712.1c0-0.5,0.2-1.1,0.5-1.5
				c0.2-0.5,0.6-0.9,1-1.2c0.4-0.3,0.9-0.5,1.5-0.6c0.4,0,0.8,0.2,1.1,0.5c0.3,0.3,0.4,0.7,0.4,1.1c0,0.6-0.2,1.1-0.5,1.6
				c-0.2,0.5-0.6,0.9-1,1.2c-0.4,0.3-0.9,0.5-1.4,0.6c-0.3,0-0.5,0-0.7-0.1C378.9,5713.2,378.6,5712.6,378.7,5712.1L378.7,5712.1z
				 M379.6,5712.3c0,0.2,0,0.5,0.2,0.7c0.1,0.2,0.4,0.3,0.6,0.3c0.5,0,0.9-0.3,1.2-1c0.4-0.7,0.6-1.4,0.6-2.2c0-0.6-0.2-1-0.7-1
				s-1,0.4-1.4,1.3C379.8,5711,379.6,5711.6,379.6,5712.3L379.6,5712.3z"/>
			<path id="Path_1737_00000160188299938824077950000013384915709907507081_" class="st4" d="M383.8,5712.1l0.3-1.2l0.3-1.2
				c0-0.1,0.1-0.2,0-0.3c0-0.1-0.1-0.2-0.2-0.2l0,0H384h-0.1v-0.2l1.6-0.3l-0.6,2l0.1-0.2l0.3-0.4c0.6-0.9,1.2-1.3,1.8-1.3
				c0.3,0,0.6,0.3,0.6,0.6v0.2v0.3l-0.1,0.4l-0.6,2.1l-0.1,0.5v0.1c0,0.1,0,0.1,0.1,0.1s0.3-0.1,0.6-0.5l0.2-0.3l0.1,0.1l-0.2,0.3
				c-0.1,0.1-0.2,0.3-0.3,0.4c-0.1,0.1-0.2,0.2-0.3,0.3l-0.3,0.1c-0.1,0.1-0.2,0.1-0.3,0.1c-0.3,0-0.5-0.2-0.5-0.5v-0.4
				c0-0.2,0.1-0.4,0.2-0.6l0.5-1.8v-0.3c0-0.1,0.1-0.2,0-0.3v-0.1c0-0.1-0.1-0.1-0.2-0.1c-0.3,0-0.6,0.2-0.7,0.5l-0.2,0.3
				c-0.3,0.3-0.5,0.6-0.6,1c-0.1,0.2-0.2,0.4-0.3,0.6l-0.2,0.6l-0.4,1.2h-0.8L383.8,5712.1L383.8,5712.1z"/>
			<path id="Path_1738_00000138569966992322453740000013512652038542851204_" class="st4" d="M391.1,5712.3
				c-0.2,0.3-0.5,0.6-0.7,0.8c-0.3,0.3-0.7,0.4-1.1,0.4c-0.3,0-0.6-0.2-0.7-0.4c-0.2-0.3-0.2-0.5-0.2-0.8c0-0.4,0.1-0.8,0.2-1.1
				c0.3-0.7,0.7-1.3,1.3-1.8c0.2-0.2,0.4-0.3,0.7-0.5c0.2-0.1,0.4-0.2,0.7-0.2c0.2,0,0.5,0.1,0.6,0.3l0.1,0.2l0.1-0.3h0.7l-0.1,0.4
				l-0.3,1l-0.4,1.4l-0.2,0.7c0,0.2-0.1,0.3,0,0.5v0.1l0,0l0,0c0.1,0,0.3-0.2,0.6-0.5l0.1-0.2l0.2,0.2l-0.2,0.2l-0.3,0.3
				c-0.2,0.3-0.6,0.5-0.9,0.6c-0.2,0-0.4-0.2-0.4-0.4l0,0c0-0.1,0-0.2,0-0.3L391.1,5712.3L391.1,5712.3L391.1,5712.3z M389.2,5712.3
				c0,0.5,0.2,0.7,0.6,0.7s0.8-0.4,1.2-1.1c0.2-0.2,0.3-0.5,0.4-0.8c0.1-0.2,0.2-0.5,0.3-0.8c0-0.2,0.1-0.5,0.1-0.7s0-0.3-0.1-0.4
				s-0.2-0.2-0.4-0.2c-0.3,0-0.6,0.2-0.8,0.4c-0.2,0.2-0.4,0.4-0.6,0.7c-0.1,0.3-0.3,0.5-0.4,0.8
				C389.3,5711.4,389.2,5711.8,389.2,5712.3L389.2,5712.3z"/>
			<path id="Path_1739_00000061433616429715572650000009671775361171410350_" class="st4" d="M394.7,5707.8c0-0.1,0.1-0.2,0.1-0.4
				v-0.1c0-0.1-0.2-0.1-0.4-0.1h-0.3l0.1-0.2l1.6-0.3l-1.5,5.6c0,0.2-0.1,0.4-0.1,0.5v0.1c0,0.1,0,0.1,0.1,0.1s0.2-0.1,0.4-0.2
				l0.2-0.3l0.2-0.2l0.1-0.1l0.2,0.1l-0.1,0.2c-0.1,0.2-0.2,0.3-0.3,0.5c-0.2,0.3-0.6,0.5-1,0.6c-0.2,0-0.3,0-0.4-0.1
				s-0.2-0.2-0.2-0.4c0-0.1,0-0.2,0-0.4l0.2-0.6L394.7,5707.8L394.7,5707.8z"/>
		</g>
	</g>
	<g id="Group_484_00000093895366439909510000000010114125572152193469_" transform="translate(-9.129 3933.488)">
		<g id="Group_483_00000019669728398890213850000010712995747069456535_">
			<g id="Group_482_00000044869642820109697610000005857430058149390467_">
				<path id="Path_1741_00000012441781111819875970000016035936842026991803_" d="M81,5716.2h-0.7v-7.5H81V5716.2z M86,5708.6
					c0.6,0,1.2,0.1,1.7,0.3c0.5,0.2,0.9,0.4,1.3,0.8c0.4,0.3,0.6,0.7,0.8,1.2c0.4,1,0.4,2.1,0,3.1c-0.2,0.5-0.5,0.9-0.8,1.2
					c-0.4,0.3-0.8,0.6-1.3,0.8c-0.5,0.2-1.1,0.3-1.7,0.3h-2.8v-7.5H86V5708.6z M83.9,5709.2v6.3H86c0.5,0,1-0.1,1.5-0.2
					c0.4-0.1,0.8-0.3,1.1-0.6c0.3-0.3,0.5-0.6,0.7-1c0.3-0.8,0.3-1.8,0-2.6c-0.1-0.4-0.4-0.7-0.7-1c-0.3-0.3-0.7-0.5-1.1-0.6
					c-0.5-0.2-1-0.2-1.5-0.2L83.9,5709.2z M98.1,5708.5c0.3,0,0.6,0,0.9,0.1s0.6,0.2,0.8,0.3c0.3,0.1,0.5,0.3,0.7,0.5
					s0.4,0.4,0.5,0.6l-0.6,0.4c-0.1-0.2-0.3-0.4-0.5-0.5c-0.2-0.2-0.4-0.3-0.6-0.4s-0.4-0.2-0.7-0.3c-0.2-0.1-0.5-0.1-0.8-0.1
					c-0.4,0-0.9,0.1-1.3,0.2s-0.7,0.4-1,0.7c-0.3,0.3-0.5,0.6-0.7,1c-0.3,0.8-0.3,1.8,0,2.6c0.2,0.4,0.4,0.7,0.7,1
					c0.3,0.3,0.6,0.5,1,0.7c0.6,0.2,1.3,0.3,2,0.1c0.2-0.1,0.5-0.1,0.7-0.3c0.2-0.1,0.4-0.2,0.6-0.4c0.2-0.2,0.3-0.3,0.5-0.5
					l0.5,0.4c-0.2,0.2-0.3,0.4-0.6,0.6c-0.2,0.2-0.5,0.3-0.7,0.5c-0.3,0.1-0.5,0.2-0.8,0.3c-0.8,0.2-1.7,0.1-2.5-0.2
					c-0.5-0.2-0.9-0.5-1.2-0.8c-0.3-0.3-0.6-0.8-0.8-1.2c-0.4-1-0.4-2.1,0-3.1c0.2-0.5,0.5-0.9,0.8-1.2c0.4-0.3,0.8-0.6,1.2-0.8
					C97.1,5708.6,97.6,5708.5,98.1,5708.5z M103.4,5712c0.2-0.3,0.5-0.6,0.8-0.7c0.2-0.1,0.3-0.1,0.5-0.2c0.2,0,0.3-0.1,0.5-0.1
					c0.3,0,0.6,0,0.9,0.1s0.5,0.2,0.7,0.4c0.2,0.2,0.3,0.4,0.4,0.6c0.1,0.3,0.2,0.6,0.2,0.8v3.1h-0.6v-2.9c0-0.2,0-0.5-0.1-0.7
					s-0.2-0.4-0.3-0.5c-0.1-0.1-0.3-0.3-0.5-0.3c-0.2-0.1-0.5-0.1-0.7-0.1s-0.5,0-0.7,0.1s-0.4,0.2-0.5,0.3
					c-0.2,0.2-0.3,0.3-0.4,0.5s-0.1,0.4-0.1,0.7v2.9h-0.6v-7.8h0.6L103.4,5712z M111.3,5711c0.3,0,0.6,0.1,0.9,0.2s0.5,0.3,0.7,0.5
					s0.4,0.5,0.5,0.8s0.2,0.7,0.2,1v0.1v0.1h-4.3c0,0.3,0.1,0.5,0.2,0.8c0.1,0.2,0.2,0.4,0.4,0.6c0.2,0.2,0.4,0.3,0.6,0.4
					s0.5,0.1,0.7,0.1c0.3,0,0.7-0.1,1-0.2s0.5-0.3,0.8-0.5l0.3,0.4c-0.1,0.2-0.3,0.3-0.5,0.4s-0.3,0.2-0.5,0.3
					c-0.2,0.1-0.3,0.1-0.5,0.1s-0.4,0-0.5,0c-0.4,0-0.7-0.1-1-0.2c-0.6-0.2-1.1-0.7-1.3-1.4c-0.1-0.3-0.2-0.7-0.2-1.1
					s0.1-0.7,0.2-1.1c0.1-0.3,0.3-0.6,0.5-0.8c0.2-0.2,0.5-0.4,0.8-0.5C110.7,5711.1,111,5711,111.3,5711L111.3,5711z M111.3,5711.5
					c-0.2,0-0.5,0-0.7,0.1s-0.4,0.2-0.6,0.4c-0.2,0.2-0.3,0.3-0.4,0.6c-0.1,0.2-0.2,0.5-0.2,0.7h3.6c0-0.2-0.1-0.5-0.2-0.7
					s-0.2-0.4-0.4-0.6C112.2,5711.7,111.8,5711.5,111.3,5711.5L111.3,5711.5z M117.5,5711c0.4,0,0.7,0.1,1,0.2s0.6,0.3,0.8,0.6
					l-0.4,0.4c-0.2-0.2-0.4-0.3-0.7-0.5c-0.3-0.1-0.5-0.2-0.8-0.2s-0.5,0.1-0.8,0.2c-0.2,0.1-0.4,0.2-0.6,0.4
					c-0.2,0.2-0.3,0.4-0.4,0.6c-0.2,0.5-0.2,1.1,0,1.6c0.1,0.2,0.2,0.5,0.4,0.6c0.4,0.4,0.9,0.6,1.4,0.6c0.3,0,0.6-0.1,0.8-0.2
					c0.2-0.1,0.5-0.3,0.7-0.5l0.4,0.4c-0.2,0.3-0.5,0.5-0.8,0.6s-0.7,0.2-1,0.2c-0.4,0-0.7-0.1-1-0.2c-0.6-0.3-1.1-0.8-1.4-1.4
					c-0.3-0.7-0.3-1.4,0-2.1c0.2-0.6,0.7-1.1,1.4-1.4C116.7,5711.1,117.1,5711,117.5,5711L117.5,5711z M121.4,5713.2h0.8l2.1-2.1
					h0.8l-2.4,2.4l2.5,2.7h-0.8l-2.2-2.4h-0.8v2.4h-0.6v-7.8h0.6V5713.2z M88.3,5705.9v-3.2c0.1-1.1-0.7-2-1.8-2c-0.1,0-0.2,0-0.2,0
					c-0.7,0-1.4,0.3-1.8,0.9c-0.4-0.6-1-0.9-1.7-0.9c-0.6,0-1.2,0.3-1.5,0.8v-0.6h-1.1v5.2h1.1v-2.9c-0.1-0.7,0.4-1.3,1-1.4
					c0.1,0,0.2,0,0.2,0c0.7,0,1.1,0.5,1.1,1.4v2.9h1.1v-2.9c-0.1-0.7,0.4-1.3,1.1-1.4c0.1,0,0.1,0,0.2,0c0.8,0,1.1,0.5,1.1,1.4v2.9
					L88.3,5705.9z M105.1,5700.8h-1.8v-1.6h-1.1v1.6h-1v1h1v2.4c0,1.2,0.5,1.9,1.8,1.9c0.5,0,1-0.1,1.4-0.4l-0.3-1
					c-0.3,0.2-0.6,0.3-1,0.3c-0.6,0-0.7-0.3-0.7-0.9v-2.3h1.8L105.1,5700.8z M114.7,5700.6c-0.6,0-1.1,0.3-1.4,0.8v-0.6h-1.1v5.2
					h1.1v-2.9c0-0.9,0.4-1.3,1.1-1.3c0.2,0,0.5,0,0.7,0.1l0.3-1.1C115.2,5700.7,114.9,5700.6,114.7,5700.6L114.7,5700.6z
					 M100.2,5701.2c-0.6-0.4-1.4-0.6-2.1-0.5c-1.3,0-2.1,0.6-2.1,1.7c0,0.8,0.6,1.4,1.8,1.5l0.5,0.1c0.6,0.1,0.9,0.2,0.9,0.5
					c0,0.4-0.4,0.6-1.2,0.6c-0.6,0-1.2-0.2-1.7-0.5l-0.5,0.9c0.7,0.5,1.4,0.7,2.2,0.7c1.5,0,2.4-0.7,2.4-1.7c0-0.9-0.7-1.4-1.8-1.5
					l-0.5-0.1c-0.5-0.1-0.9-0.2-0.9-0.5c0-0.4,0.4-0.6,1-0.6s1.1,0.2,1.6,0.4L100.2,5701.2z M130.3,5700.6c-0.6,0-1.1,0.3-1.4,0.8
					v-0.6h-1.1v5.2h1.1v-2.9c0-0.9,0.4-1.3,1.1-1.3c0.2,0,0.5,0,0.7,0.1l0.3-1.1C130.8,5700.7,130.5,5700.6,130.3,5700.6
					L130.3,5700.6z M115.8,5703.4c-0.1,1.4,1.1,2.7,2.5,2.7c0.1,0,0.2,0,0.3,0c0.7,0,1.3-0.2,1.9-0.6l-0.5-0.9
					c-0.4,0.3-0.9,0.5-1.3,0.5c-0.9-0.1-1.6-0.8-1.5-1.8c0.1-0.8,0.7-1.5,1.5-1.5c0.5,0,1,0.2,1.3,0.5l0.5-0.9
					c-0.5-0.4-1.2-0.6-1.9-0.6c-1.4-0.1-2.7,1-2.7,2.5C115.8,5703.2,115.8,5703.3,115.8,5703.4z M126.3,5703.4v-2.6h-1.1v0.6
					c-0.4-0.5-1-0.8-1.6-0.8c-1.5,0.1-2.6,1.4-2.6,2.8c0.1,1.4,1.2,2.5,2.6,2.6c0.6,0,1.2-0.3,1.6-0.8v0.6h1.1V5703.4z
					 M122.1,5703.4c0-0.9,0.8-1.5,1.6-1.5c0.9,0,1.5,0.8,1.5,1.6c0,0.8-0.7,1.5-1.6,1.5s-1.6-0.7-1.6-1.5
					C122.1,5703.4,122.1,5703.4,122.1,5703.4L122.1,5703.4z M108.6,5700.6c-1.5,0.1-2.6,1.4-2.6,2.9c0.1,1.4,1.2,2.5,2.6,2.6
					c0.8,0,1.5-0.2,2.1-0.7l-0.6-0.8c-0.4,0.3-1,0.5-1.5,0.5c-0.8,0.1-1.5-0.5-1.5-1.3h3.8c0-0.1,0-0.3,0-0.4
					c0.1-1.4-0.9-2.6-2.2-2.7C108.7,5700.6,108.7,5700.6,108.6,5700.6L108.6,5700.6z M108.6,5701.6c0.7,0,1.3,0.5,1.3,1.3h-2.7
					C107.2,5702.2,107.9,5701.6,108.6,5701.6L108.6,5701.6z M136.7,5703.3v-4.6h-1.1v2.7c-0.4-0.5-1-0.8-1.6-0.8
					c-1.5,0.1-2.6,1.4-2.6,2.8c0.1,1.4,1.2,2.5,2.6,2.6c0.6,0,1.2-0.3,1.6-0.8v0.6h1.1V5703.3z M138,5705.4h0.1
					c0.1,0,0.1,0.1,0.2,0.2v0.1v0.1c0,0,0,0.1-0.1,0.1l-0.1,0.1H138h-0.1c0,0-0.1,0-0.1-0.1l-0.1-0.1v-0.1v-0.1c0,0,0-0.1,0.1-0.1
					l0.1-0.1C137.9,5705.5,138,5705.5,138,5705.4L138,5705.4z M138,5706h0.1c0,0,0.1,0,0.1-0.1c0,0,0-0.1,0.1-0.1c0-0.1,0-0.1,0-0.2
					c0,0,0-0.1-0.1-0.1c0,0-0.1-0.1-0.2-0.1h-0.1c0,0-0.1,0-0.1,0.1c0,0,0,0.1-0.1,0.1c0,0.1,0,0.1,0,0.2c0,0,0,0.1,0.1,0.1
					C137.9,5706,137.9,5706,138,5706L138,5706L138,5706z M138.1,5705.6L138.1,5705.6c0.1,0,0.1,0.1,0.1,0.1s0,0,0,0.1c0,0,0,0-0.1,0
					l0.1,0.1h-0.1l-0.1-0.1l0,0v0.1h-0.1v-0.3L138.1,5705.6z M138,5705.7L138,5705.7L138,5705.7c0.1,0.1,0.1,0.1,0.1,0.1l0,0l0,0
					C138.1,5705.7,138.1,5705.7,138,5705.7L138,5705.7z M132.5,5703.3c0-0.9,0.8-1.5,1.6-1.5c0.9,0,1.5,0.8,1.5,1.6
					c0,0.8-0.7,1.5-1.6,1.5c-0.9,0-1.6-0.7-1.6-1.5C132.5,5703.4,132.5,5703.4,132.5,5703.3z M94.7,5703.3v-2.6h-1.1v0.6
					c-0.4-0.5-1-0.8-1.6-0.8c-1.5,0.1-2.6,1.4-2.6,2.8c0.1,1.4,1.2,2.5,2.6,2.6c0.6,0,1.2-0.3,1.6-0.8v0.6h1.1V5703.3z M90.5,5703.3
					c0.1-0.9,0.8-1.5,1.7-1.5c0.9,0.1,1.5,0.8,1.5,1.7c-0.1,0.8-0.7,1.5-1.6,1.5s-1.6-0.7-1.6-1.5
					C90.5,5703.4,90.5,5703.4,90.5,5703.3L90.5,5703.3z M126,5715.9L126,5715.9l-0.1,0.3l0,0L126,5715.9h-0.2l0,0H126L126,5715.9z
					 M126.3,5716.1L126.3,5716.1v-0.2V5716.1h-0.2l-0.1-0.2v0.2l0,0v-0.3h0.1L126.3,5716.1v-0.3h0.1L126.3,5716.1z"/>
				<g id="Group_481_00000006688169642274783860000004603953996492460192_">
					
						<rect id="Rectangle_134_00000075120775220259390510000012509142497155515819_" x="59.1" y="5697.2" class="st5" width="6.8" height="12.2"/>
					<path id="Path_1742_00000086673823616287504320000003943144068850047679_" class="st6" d="M59.5,5703.3c0-2.4,1.1-4.6,3-6.1
						c-3.4-2.6-8.2-2.1-10.9,1.3c-2.6,3.4-2.1,8.2,1.3,10.9c2.8,2.2,6.8,2.2,9.6,0C60.6,5707.9,59.5,5705.7,59.5,5703.3z"/>
					<path id="Path_1743_00000121252789009495513690000008273565200837276315_" class="st7" d="M74.3,5708.1v-0.2h0.1v-0.1h-0.3v0.1
						h0.1L74.3,5708.1L74.3,5708.1z M74.8,5708.1v-0.3h-0.1l-0.1,0.2l-0.1-0.2h-0.1v0.3h0.1v-0.2l0.1,0.2H74.8v-0.2V5708.1
						L74.8,5708.1z"/>
					<path id="Path_1744_00000036946966960827990400000016511485594669159064_" class="st7" d="M75,5703.3c0,4.3-3.5,7.8-7.8,7.8
						c-1.7,0-3.4-0.6-4.8-1.7c3.4-2.6,4-7.5,1.3-10.9c-0.4-0.5-0.8-0.9-1.3-1.3c3.4-2.6,8.2-2.1,10.9,1.3
						C74.4,5699.9,75,5701.6,75,5703.3L75,5703.3z"/>
				</g>
			</g>
		</g>
	</g>
	<g id="Group_485_00000023282909946062634390000016010948412215286924_" transform="translate(-9.129 3933.488)">
		<path id="Path_1745_00000003078014968528089370000005467472833040419739_" class="st8" d="M198.6,5710.3c-0.1,0.5-0.2,1-0.3,1.5
			c-0.5-0.2-1.1-0.3-1.7-0.3c-0.4,0-0.9,0.2-1,0.6c0,0.4,0.7,0.7,1.1,0.9c0.7,0.3,1.5,0.8,1.5,1.7c0,0.6-0.2,1.2-0.7,1.7
			c-1,0.9-3.2,1-4.7,0.4c0.1-0.5,0.2-1,0.3-1.5c0.7,0.4,1.5,0.5,2.3,0.5c0.4,0,0.9-0.3,0.9-0.7c0-0.5-1-0.8-1.4-1.1
			c-0.9-0.3-1.4-1.4-1.1-2.3c0.1-0.2,0.2-0.4,0.3-0.6C194.9,5710.1,196.9,5709.7,198.6,5710.3z"/>
		<path id="Path_1746_00000013178634935870551330000004512550068061870491_" class="st8" d="M180.6,5700.5h2l-1.2,7.9h-2
			L180.6,5700.5z"/>
		<path id="Path_1747_00000014597891557900334120000016864398316994392221_" class="st8" d="M173.5,5700.5h3.1c2,0,2.5,1.1,2.3,2.5
			c-0.2,1.1-1,1.9-2.1,2.2l2,3.2h-2.5l-1.5-3.1l-0.5,3.1h-2L173.5,5700.5L173.5,5700.5z M175.3,5702l-0.3,2h0.6c0.6,0,1.1-0.4,1.2-1
			l0,0c0.1-0.5-0.2-0.9-0.7-1c-0.1,0-0.1,0-0.2,0H175.3z"/>
		<path id="Path_1748_00000013908464250902536220000001762249760712508083_" class="st8" d="M189.8,5700.5h2l-1.2,7.9h-2
			L189.8,5700.5z"/>
		<path id="Path_1749_00000028287580192420475400000017162520030482092950_" class="st8" d="M193.4,5700.5h4.4l-0.3,1.7h-2.4
			l-0.2,1.3h2.3l-0.3,1.7h-2.3l-0.2,1.4h2.4l-0.3,1.7h-4.4L193.4,5700.5L193.4,5700.5z"/>
		<path id="Path_1750_00000036252145064272499240000010300017286084174248_" class="st8" d="M167.9,5700.5h4.4l-0.3,1.7h-2.4
			l-0.2,1.3h2.3l-0.3,1.7h-2.3l-0.2,1.4h2.4l-0.3,1.7h-4.4L167.9,5700.5L167.9,5700.5z"/>
		<path id="Path_1751_00000165926354652862998600000014303404126690719135_" class="st8" d="M184.1,5700.5h4.5l-0.3,1.7h-2.5
			l-0.2,1.3h2.2l-0.3,1.7h-2.2l-0.5,3.1h-2L184.1,5700.5L184.1,5700.5z"/>
		<path id="Path_1752_00000154386058362794571350000009302379816541284784_" class="st8" d="M199,5700.5h2.6c3.1,0,3.9,2.4,3.6,3.9
			c-0.4,2.3-2.5,4-4.9,3.9h-2.6L199,5700.5L199,5700.5z M200.8,5702.2h0.4c1-0.1,1.9,0.6,2,1.6c0,0.2,0,0.4,0,0.6
			c-0.1,1.3-1.2,2.3-2.6,2.3h-0.5L200.8,5702.2z"/>
		<path id="Path_1753_00000174582231340794074250000013540337864291708852_" class="st8" d="M158.4,5699.4h3.7l0.4,5.7
			c2.5-4.3,5-8.4,7.5-12.5h1.2c-2.7,5.2-5.3,10.4-7.9,15.7h-2.8l-0.7-6.3c-0.2-1.6-0.5-2.2-1.6-2.4L158.4,5699.4L158.4,5699.4z"/>
		<path id="Path_1754_00000031901423809886713770000008115665172910406057_" class="st9" d="M159.8,5696.1l3.2,1.4l0.3,3.6h0.2
			l2.9-4.9v-0.2h-6.6L159.8,5696.1L159.8,5696.1z"/>
		<path id="Path_1755_00000000901705830340479180000006765832065757316763_" class="st8" d="M174.6,5713.9c0.4,0,0.8,0.4,0.8,0.8
			v0.1c-0.1,0.5-0.5,0.9-1,1c-0.4,0-0.8-0.4-0.8-0.8c0-0.1,0-0.1,0-0.2C173.6,5714.4,174.1,5714,174.6,5713.9L174.6,5713.9z
			 M172.9,5710.2h1.3l-0.4,3.1c0.4-0.4,0.8-0.6,1.3-0.6c1.1,0,1.7,1,1.6,2.3c-0.1,1.2-1,2.1-2.2,2.3c-0.5,0-0.9-0.2-1.1-0.6
			l-0.1,0.5H172L172.9,5710.2L172.9,5710.2z"/>
		<path id="Path_1756_00000029042189934512504150000006776114589412485023_" class="st8" d="M176.8,5712.8h1.6l0.7,2.2l1.4-2.2h1.5
			l-4,6.4h-1.5l1.7-2.7L176.8,5712.8L176.8,5712.8z"/>
		<path id="Path_1757_00000040547089554592337760000015721203056318217096_" class="st8" d="M189.8,5717.1l1.2-6.9h1.9l-1.2,6.9
			H189.8z"/>
		<path id="Path_1758_00000086667150524799146480000017411852028795783861_" class="st8" d="M188.2,5710.1c-0.6,1.5-1.2,3.2-1.9,4.7
			l-0.2-0.9l0,0v0.2c-0.2-0.5-0.4-0.9-0.7-1.3l0,0c-0.1-0.1-0.1-0.1-0.2-0.2l-0.1-0.1c-0.5-0.5-1-0.9-1.6-1.3l1.7,6h2
			c1-2.3,2-4.6,2.9-6.9L188.2,5710.1z"/>
		<path id="Path_1759_00000062887424021424841810000001940143427414822563_" class="st9" d="M184.7,5710.1h-3.1v0.1
			c2.1,0.4,3.8,1.8,4.6,3.8l-0.7-3.2C185.5,5710.4,185.1,5710.1,184.7,5710.1z"/>
		<path id="Path_1760_00000178162985962046589080000017963358569151318936_" class="st8" d="M204.9,5717.1h-1.7
			c-0.1-0.3-0.1-0.7-0.3-1.1h-2.4l-0.4,1.1h-2l2.6-5.9c0.1-0.3,0.3-0.6,0.4-0.8c0.1-0.2,0.6-0.3,0.9-0.3h1.4L204.9,5717.1z
			 M202,5712.1l-1,2.6h1.6L202,5712.1z"/>
	</g>
	<g id="Group_486_00000117669520146830453270000003652046413754111919_" transform="translate(-26.109 3933.527)">
		<path id="Path_1761_00000181074100389933863760000012932177155974165173_" class="st10" d="M484.2,5713.3h0.4l-0.4,1.6
			c-0.1,0.2-0.1,0.4,0,0.5s0.3,0.2,0.5,0.2s0.4-0.1,0.5-0.2c0.2-0.1,0.3-0.3,0.3-0.5l0.4-1.6h0.4l-0.4,1.7c-0.1,0.3-0.2,0.6-0.5,0.8
			c-0.3,0.2-0.6,0.3-0.9,0.3s-0.6-0.1-0.8-0.3c-0.1-0.3-0.1-0.6,0-0.8L484.2,5713.3z"/>
		<path id="Path_1762_00000076591571688471430600000005980100477295360923_" class="st10" d="M486.3,5716l0.7-2.8l1.3,1.6l0.1,0.1
			l0.1,0.2l0.5-1.9h0.4l-0.7,2.8l-1.3-1.7l-0.1-0.1c0-0.1,0-0.1,0-0.2l-0.5,1.9L486.3,5716z"/>
		<path id="Path_1763_00000151537167804500143120000017551174714018867625_" class="st10" d="M489.3,5716l0.7-2.7h0.4l-0.7,2.7
			H489.3z"/>
		<path id="Path_1764_00000173848548478040930800000014318625561538272643_" class="st10" d="M490.4,5716l0.6-2.7h1.5l-0.1,0.4h-1
			l-0.2,0.7h1l-0.1,0.4h-1l-0.3,1.3L490.4,5716L490.4,5716z"/>
		<path id="Path_1765_00000036931928293866678450000000596662555988011193_" class="st10" d="M492.3,5716l0.6-2.7h0.4l-0.6,2.7
			H492.3z"/>
		<path id="Path_1766_00000005960311256828919500000015676622677845957536_" class="st10" d="M493.4,5716l0.7-2.7h1.5l-0.1,0.4h-1.1
			l-0.2,0.7h1l-0.1,0.4H494l-0.2,0.9h1.1l-0.1,0.4L493.4,5716z"/>
		<path id="Path_1767_00000142866100031423185470000015963281025177087876_" class="st10" d="M495.3,5716l0.7-2.7h0.6
			c0.3,0,0.5,0,0.8,0c0.1,0,0.3,0.1,0.4,0.2s0.2,0.3,0.2,0.5c0.1,0.2,0.1,0.4,0,0.7c0,0.2-0.1,0.4-0.3,0.6c-0.1,0.2-0.3,0.3-0.5,0.5
			c-0.1,0.1-0.3,0.2-0.5,0.2s-0.5,0-0.7,0L495.3,5716L495.3,5716z M495.9,5715.6h0.8c0.1,0,0.2-0.1,0.3-0.1c0.1-0.1,0.2-0.2,0.3-0.3
			c0.1-0.1,0.1-0.3,0.2-0.5c0-0.1,0-0.3,0-0.5c0-0.1-0.1-0.2-0.1-0.3c-0.1-0.1-0.1-0.1-0.2-0.1c-0.2,0-0.3,0-0.5,0h-0.3
			L495.9,5715.6z"/>
		<path id="Path_1768_00000049216840976276716570000000435188332181724070_" class="st10" d="M499.9,5714.8l-0.3,1.2h-0.4l0.6-2.7
			h0.7c0.1,0,0.3,0,0.4,0s0.2,0,0.2,0.1c0.1,0.1,0.1,0.2,0.1,0.3c0,0.2,0,0.5-0.2,0.7c-0.1,0.1-0.2,0.2-0.3,0.3
			c-0.1,0.1-0.2,0.1-0.3,0.1H499.9L499.9,5714.8z M500,5714.5h0.1c0.2,0,0.3,0,0.5-0.1c0.1-0.1,0.2-0.2,0.2-0.3v-0.3
			c-0.1-0.1-0.3-0.1-0.5-0.1h-0.1L500,5714.5z"/>
		<path id="Path_1769_00000049194353219994222560000012831332954348547242_" class="st10" d="M502.8,5716l-0.1-0.7h-1l-0.5,0.7h-0.5
			l2-2.8l0.6,2.8H502.8z M501.8,5715h0.7l-0.1-0.6v-0.1v-0.2l-0.1,0.2v0.1L501.8,5715z"/>
		<path id="Path_1770_00000151540294469666164320000004727170471986392754_" class="st10" d="M503.8,5716l0.3-1.2l-0.5-1.5h0.5
			l0.3,0.9v0.2v-0.1v-0.1l0.8-0.9h0.4l-1.1,1.5l-0.3,1.2H503.8z"/>
		<path id="Path_1771_00000134230366383175724180000012643349389421248427_" class="st10" d="M508,5714.7c0-0.1,0-0.1,0-0.2v-0.2
			c0,0.1,0,0.1,0,0.2l-0.1,0.2l-1,1.4l-0.3-1.5c0-0.1,0-0.1,0-0.2s0-0.1,0-0.2c0,0.1,0,0.1,0,0.2s0,0.1,0,0.2l-0.6,1.3h-0.4l1.1-2.8
			l0.4,1.7v0.1c0,0.1,0,0.2,0,0.2l0.2-0.3v-0.1l1.3-1.7v2.8H508V5714.7z"/>
		<path id="Path_1772_00000113332360948791380050000015442073652758232716_" class="st10" d="M508.7,5716l0.7-2.7h1.5l-0.1,0.4h-1.1
			l-0.2,0.7h1.1l-0.1,0.4h-1.1l-0.2,0.9h1.1l-0.1,0.4L508.7,5716z"/>
		<path id="Path_1773_00000011016426399186933440000016265404241838141864_" class="st10" d="M510.7,5716l0.7-2.8l1.3,1.6l0.1,0.1
			l0.1,0.2l0.5-1.9h0.4l-0.7,2.8l-1.3-1.7l-0.1-0.1c0,0-0.1-0.1-0.1-0.2l-0.5,1.9L510.7,5716z"/>
		<path id="Path_1774_00000142144395652386028410000012928677748057770884_" class="st10" d="M515.1,5713.7l-0.6,2.3h-0.4l0.6-2.3
			H514l0.1-0.4h1.8l-0.1,0.4H515.1z"/>
		<path id="Path_1775_00000108997450317785102800000014279556737905724815_" class="st10" d="M515.5,5715.5l0.4-0.2
			c0,0.1,0,0.2,0.1,0.3c0.1,0.1,0.2,0.1,0.3,0.1s0.2,0,0.3-0.1s0.2-0.2,0.2-0.3c0-0.2,0-0.3-0.3-0.4l0,0c-0.2-0.1-0.4-0.2-0.5-0.4
			c-0.1-0.1-0.1-0.3,0-0.4c0-0.2,0.2-0.4,0.4-0.5s0.4-0.2,0.6-0.2c0.2,0,0.3,0,0.5,0.1c0.1,0.1,0.2,0.2,0.2,0.3l-0.4,0.2
			c0-0.1-0.1-0.1-0.1-0.2c-0.1,0-0.1,0-0.2,0c-0.1,0-0.2,0-0.3,0.1s-0.1,0.2-0.2,0.3c0,0.2,0,0.3,0.4,0.5l0,0
			c0.2,0.1,0.3,0.2,0.5,0.4c0.1,0.1,0.1,0.3,0,0.4c-0.1,0.2-0.2,0.5-0.4,0.6c-0.2,0.2-0.4,0.2-0.7,0.2c-0.2,0-0.4,0-0.5-0.2
			C515.6,5715.9,515.5,5715.7,515.5,5715.5"/>
		<path id="Path_1776_00000177445195530709837890000001677968066295388308_" class="st10" d="M518.7,5716l0.6-2.7h0.4l-0.7,2.7
			H518.7z"/>
		<path id="Path_1777_00000136408924712122919680000008643818780956752264_" class="st10" d="M519.8,5716l0.7-2.8l1.3,1.6l0.1,0.1
			l0.1,0.2l0.5-1.9h0.4l-0.7,2.8l-1.3-1.7l-0.1-0.1v-0.2l-0.5,1.9L519.8,5716z"/>
		<path id="Path_1778_00000035498294725470327080000001165030625847882882_" class="st10" d="M524.2,5713.7l-0.6,2.3h-0.4l0.6-2.3
			h-0.7l0.1-0.4h1.8l-0.1,0.4H524.2z"/>
		<path id="Path_1779_00000083776512119294541880000000184679237486655127_" class="st10" d="M524.7,5716l0.6-2.7h1.5l-0.1,0.4h-1
			l-0.2,0.7h1.1l-0.1,0.4h-1.1l-0.2,0.9h1.1l-0.1,0.4L524.7,5716z"/>
		<path id="Path_1780_00000040555634404344226240000005408860347813656744_" class="st10" d="M527.3,5714.8l-0.3,1.2h-0.4l0.6-2.7
			h0.6c0.1,0,0.3,0,0.4,0c0.1,0,0.2,0.1,0.2,0.1c0.1,0.1,0.1,0.2,0.1,0.3c0,0.1,0,0.2,0,0.3c0,0.2-0.1,0.4-0.3,0.5
			c-0.1,0.1-0.3,0.2-0.5,0.2l0.6,1.2H528L527.3,5714.8L527.3,5714.8z M527.4,5714.5L527.4,5714.5c0.2,0,0.3,0,0.5-0.1
			c0.1-0.1,0.2-0.2,0.2-0.3v-0.3c-0.1-0.1-0.3-0.1-0.4-0.1l0,0L527.4,5714.5z"/>
		<path id="Path_1781_00000025422063747045929660000015608012810490811578_" class="st10" d="M528.7,5716l0.7-2.7h1.5l-0.1,0.4h-1.1
			l-0.2,0.7h1.1l-0.1,0.4h-1.1l-0.3,1.3L528.7,5716z"/>
		<path id="Path_1782_00000012466708606160889010000016531137617534782883_" class="st10" d="M532.3,5716l-0.1-0.7h-1l-0.5,0.7h-0.4
			l1.9-2.8l0.6,2.8H532.3z M531.4,5715h0.7l-0.1-0.6v-0.1l0,0v0.1L531.4,5715z"/>
		<path id="Path_1783_00000063594594513137941520000004056411499078758033_" class="st10" d="M535.6,5714c-0.1-0.1-0.2-0.2-0.3-0.2
			c-0.1-0.1-0.3-0.1-0.4-0.1c-0.3,0-0.6,0.1-0.8,0.3c-0.2,0.2-0.4,0.4-0.5,0.7c-0.1,0.2-0.1,0.5,0,0.7s0.4,0.3,0.6,0.3
			c0.2,0,0.3,0,0.5-0.1s0.3-0.2,0.5-0.3l-0.1,0.5c-0.1,0.1-0.3,0.1-0.4,0.2c-0.1,0-0.3,0-0.5,0s-0.4,0-0.5-0.1s-0.3-0.2-0.4-0.3
			c-0.1-0.1-0.2-0.3-0.2-0.5s0-0.4,0-0.6s0.1-0.4,0.2-0.6c0.1-0.2,0.2-0.3,0.4-0.5c0.2-0.1,0.3-0.2,0.5-0.3c0.2-0.1,0.4-0.1,0.6-0.1
			c0.1,0,0.3,0,0.4,0c0.1,0,0.2,0.1,0.4,0.2V5714z"/>
		<path id="Path_1784_00000109741370624051037350000000052240573897945747_" class="st10" d="M535.6,5716l0.6-2.7h1.5l-0.1,0.4h-1
			l-0.2,0.7h1.1l-0.1,0.4h-1l-0.2,0.9h1.1l-0.1,0.4L535.6,5716z"/>
		<path id="Path_1785_00000066490029352862140610000017508162085350691261_" class="st11" d="M527.7,5710.9h-3l4.1-14.9h3
			L527.7,5710.9z"/>
		<path id="Path_1786_00000021805304469176014910000008307304208745791120_" class="st11" d="M526.2,5696.5
			c-0.2-0.3-0.6-0.5-0.9-0.4H509l-0.8,2.9h14.9l-0.9,3.1h-14.9l-2.5,8.9h3l1.6-6h13.4c0.9,0,1.6-0.6,1.9-1.5l1.6-6
			C526.4,5697.2,526.3,5696.8,526.2,5696.5"/>
		<path id="Path_1787_00000098928498358378817240000000103431979068852902_" class="st11" d="M503,5710c-0.2,0.6-0.7,1-1.3,1h-15.3
			c-0.4,0-0.7-0.1-0.9-0.4c-0.2-0.3-0.3-0.7-0.2-1l3.7-13.5h3l-3.3,12h11.9l3.3-12h3L503,5710z"/>
		<path id="Path_1788_00000160876929471302508300000007196739416219320203_" class="st12" d="M537,5696l3.8,7.5l-7.9,7.5L537,5696z"
			/>
		<path id="Path_1789_00000047018896986563217370000008072495365394360983_" class="st13" d="M534.4,5696l3.7,7.5l-7.9,7.5
			L534.4,5696z"/>
	</g>
	<g id="Group_8997_00000176739615844111441450000012011381375199181704_" transform="translate(754.521 9634.085)">
		<path id="Path_21254_00000181074104877227306990000008353627023455959464_" class="st14" d="M-447.8-8h28.6v28.6h-28.6V-8z"/>
		<path id="Path_21255_00000161626935198314323880000014377150610409891236_" class="st15" d="M-437.5,16.1V5.8h18.2v2.8l-2.1,2.2
			l2.1,2.3V16h-3.4l-1.8-2l-1.8,2L-437.5,16.1L-437.5,16.1z"/>
		<path id="Path_21256_00000160148756561137246200000000110511917648323775_" class="st14" d="M-436.3,14.9V7h6.8v1.8h-4.6V10h4.5
			v1.8h-4.5V13h4.6v1.9H-436.3z"/>
		<path id="Path_21257_00000074414775577519563860000009643110014784123013_" class="st14" d="M-429.5,14.9l3.7-4l-3.7-4h2.9
			l2.3,2.5l2.3-2.5h2.8V7l-3.7,3.9l3.7,3.9v0.1h-2.8l-2.3-2.6l-2.3,2.6H-429.5z"/>
		<path id="Path_21258_00000106112828110320188220000017442261128453014682_" class="st15" d="M-436.6-3.3h4.4l1.5,3.5v-3.5h5.4
			l0.9,2.6l0.9-2.6h4.1V7h-21.9L-436.6-3.3L-436.6-3.3z"/>
		<path id="Path_21259_00000003813206685308677050000009696711347588041371_" class="st14" d="M-435.8-2.1l-3.5,8h2.4l0.7-1.6h3.6
			l0.7,1.6h2.5l-3.5-8H-435.8z M-435.5,2.4l1.1-2.5l1.1,2.5H-435.5z"/>
		<path id="Path_21260_00000110464901435777058770000013911858176563317921_" class="st14" d="M-429.5,5.8v-8h3.4l1.8,4.9l1.8-4.9
			h3.3v8h-2.1V0.4l-2,5.5h-1.9l-2-5.5v5.5L-429.5,5.8L-429.5,5.8z"/>
	</g>
</g>
<g>
	<path class="st16" d="M526.6,20.2v2.5h2.3c0.4,0,0.7-0.1,0.9-0.2c0.4-0.2,0.6-0.6,0.6-1.2c0-0.5-0.2-0.8-0.6-1
		c-0.2-0.1-0.5-0.2-0.9-0.2h-2.3V20.2z M526.6,16.6v2h2.3c0.4,0,0.7-0.1,1-0.2c0.3-0.2,0.4-0.4,0.4-0.8s-0.2-0.7-0.5-0.9
		c-0.3-0.1-0.7-0.1-1.1-0.1H526.6L526.6,16.6z M531.6,16c0.3,0.4,0.4,0.9,0.4,1.4c0,0.6-0.1,1-0.4,1.4c-0.2,0.2-0.4,0.4-0.7,0.5
		c0.5,0.2,0.8,0.4,1.1,0.8c0.2,0.4,0.4,0.8,0.4,1.4s-0.1,1-0.4,1.5c-0.2,0.3-0.4,0.5-0.7,0.7s-0.6,0.4-1,0.5s-0.8,0.1-1.3,0.1h-4.2
		V15h4.5C530.3,15,531.1,15.3,531.6,16L531.6,16z"/>
	<polygon class="st16" points="535.4,24.3 533.5,24.3 533.5,15 535.4,15 	"/>
	<polygon class="st16" points="536.8,15 538.8,15 538.8,22.6 543.4,22.6 543.4,24.3 536.8,24.3 	"/>
	<polygon class="st16" points="544.3,15 546.3,15 546.3,22.6 550.9,22.6 550.9,24.3 544.3,24.3 	"/>
	<path class="st16" d="M556.6,16.9c-0.2-0.2-0.6-0.3-1-0.3h-1.7v2.7h1.7c0.4,0,0.8-0.1,1-0.3c0.2-0.2,0.4-0.6,0.4-1.1
		C556.9,17.4,556.8,17.1,556.6,16.9L556.6,16.9z M558.1,20.2c-0.5,0.5-1.3,0.7-2.3,0.7h-1.9v3.3H552V15h4c0.9,0,1.7,0.2,2.2,0.7
		c0.5,0.5,0.8,1.2,0.8,2.2C558.9,19,558.6,19.8,558.1,20.2L558.1,20.2z"/>
	<path class="st16" d="M561.6,20.7h2.4l-1.2-3.7L561.6,20.7L561.6,20.7z M561.7,15h2.2l3.3,9.3h-2.1l-0.6-1.9h-3.4l-0.6,1.9h-2
		L561.7,15L561.7,15z"/>
	<polygon class="st16" points="572.1,15 574.3,15 571.2,20.8 571.2,24.3 569.3,24.3 569.3,20.8 566.1,15 568.4,15 570.3,19 	"/>
	<path class="st16" d="M528.9,11.9c0.2,0,0.4,0,0.6-0.1c0.2,0,0.3-0.1,0.5-0.2c0.1-0.1,0.2-0.2,0.3-0.4s0.1-0.4,0.1-0.6
		c0-0.5-0.1-0.8-0.4-1c-0.3-0.2-0.6-0.3-1.1-0.3h-2.2v2.6H528.9L528.9,11.9z M528.8,8c0.4,0,0.7-0.1,0.9-0.3
		c0.2-0.2,0.4-0.5,0.4-0.8c0-0.2,0-0.4-0.1-0.5s-0.2-0.2-0.3-0.3c-0.1-0.1-0.3-0.1-0.4-0.2c-0.2,0-0.3,0-0.5,0h-1.9V8H528.8L528.8,8
		z M529.1,4.2c0.4,0,0.8,0,1.2,0.1s0.7,0.2,0.9,0.4c0.3,0.2,0.5,0.4,0.6,0.7c0.1,0.3,0.2,0.7,0.2,1.1c0,0.5-0.1,0.9-0.3,1.2
		s-0.5,0.6-0.9,0.8c0.6,0.2,1,0.5,1.3,0.9s0.4,0.9,0.4,1.5c0,0.5-0.1,0.9-0.3,1.2s-0.4,0.6-0.7,0.8s-0.7,0.4-1.1,0.5
		c-0.4,0.1-0.8,0.2-1.2,0.2h-4.5V4.2H529.1L529.1,4.2z"/>
	<polygon class="st16" points="535.4,4.2 535.4,7.8 539.2,7.8 539.2,4.2 541.2,4.2 541.2,13.5 539.2,13.5 539.2,9.5 535.4,9.5 
		535.4,13.5 533.4,13.5 533.4,4.2 	"/>
	<path class="st16" d="M547.5,9.9l-1.2-3.4l0,0l-1.2,3.4H547.5L547.5,9.9z M547.4,4.2l3.5,9.3h-2.1l-0.7-2.1h-3.5l-0.7,2.1h-2.1
		l3.5-9.3H547.4L547.4,4.2z"/>
	<path class="st16" d="M555.7,8.4c0.5,0,0.8-0.1,1.1-0.3c0.2-0.2,0.4-0.5,0.4-1s-0.1-0.8-0.4-1c-0.2-0.2-0.6-0.3-1.1-0.3h-2.2v2.6
		H555.7L555.7,8.4z M556.4,4.2c0.4,0,0.8,0.1,1.1,0.2s0.6,0.3,0.9,0.6c0.2,0.2,0.4,0.5,0.5,0.8s0.2,0.6,0.2,1c0,0.5-0.1,1-0.3,1.4
		c-0.2,0.4-0.6,0.7-1.1,0.9l0,0c0.3,0.1,0.5,0.2,0.6,0.3c0.2,0.1,0.3,0.3,0.4,0.5c0.1,0.2,0.2,0.4,0.2,0.6c0,0.2,0.1,0.5,0.1,0.7
		c0,0.1,0,0.3,0,0.5s0,0.4,0,0.6c0,0.2,0.1,0.4,0.1,0.6c0,0.2,0.1,0.3,0.2,0.5h-2c-0.1-0.3-0.2-0.6-0.2-1.1c0-0.4-0.1-0.8-0.1-1.2
		c-0.1-0.5-0.2-0.8-0.4-1.1c-0.2-0.2-0.6-0.3-1.1-0.3h-2v3.6h-2V4.2H556.4L556.4,4.2z"/>
	<path class="st16" d="M565.3,9.9l-1.2-3.4l0,0l-1.2,3.4H565.3L565.3,9.9z M565.2,4.2l3.5,9.3h-2.1l-0.7-2.1h-3.5l-0.7,2.1h-2.1
		l3.5-9.3H565.2L565.2,4.2z"/>
	<polygon class="st16" points="567.3,5.9 567.3,4.2 574.9,4.2 574.9,5.9 572.1,5.9 572.1,13.5 570,13.5 570,5.9 	"/>
	<path class="st17" d="M504.8,7.2h3.7c0.4,0,0.8,0,1.2,0.1c0.4,0.1,0.7,0.2,1,0.4c0.3,0.2,0.5,0.4,0.7,0.7s0.3,0.7,0.3,1.2
		c0,0.9-0.3,1.5-0.8,1.9c1.4,0.3,2.4,0.5,3.5,1.1c0.4-0.3,0.8-0.7,1.1-1.1c0.5-0.7,0.7-1.6,0.7-2.7c0-1-0.2-1.8-0.5-2.5
		s-0.8-1.2-1.4-1.6c-0.6-0.4-1.3-0.7-2.1-0.9s-1.7-0.3-2.7-0.3h-4.6v3.7C504.9,7.2,504.8,7.2,504.8,7.2z"/>
	<path class="st18" d="M512.3,19.7c-0.2,0.4-0.4,0.6-0.8,0.8c-0.3,0.2-0.7,0.4-1.1,0.4c-0.4,0.1-0.8,0.1-1.3,0.1h-5v-5.8h5
		c1,0,1.8,0.2,2.4,0.7c0.6,0.5,0.9,1.2,0.9,2.3C512.6,18.9,512.5,19.3,512.3,19.7L512.3,19.7z M508.9,12.2h-4.7v-5l0,0V3.6h-4.6
		v21.1h10.2c0.9,0,1.9-0.1,2.8-0.4c0.9-0.2,1.7-0.6,2.4-1.1s1.3-1.1,1.7-1.9s0.6-1.7,0.6-2.8c0-1.3-0.3-2.4-1-3.4
		C515.1,13.4,512.5,12.2,508.9,12.2L508.9,12.2z"/>
	<path class="st19" d="M521,26.7c-0.1,0-0.3-0.1-0.3-0.3V2c0-0.1,0.1-0.3,0.3-0.3s0.3,0.1,0.3,0.3v24.5
		C521.2,26.6,521.1,26.7,521,26.7L521,26.7z"/>
</g>
</svg>
